<?xml version="1.0" encoding="UTF-8" standalone="no"?>
<svg
   enable-background="new 0 0 580 580"
   height="580"
   viewBox="0 0 580 580"
   width="580"
   version="1.1"
   id="svg19"
   sodipodi:docname="landuse_deciduous.svg"
   inkscape:version="1.1.1 (3bf5ae0d25, 2021-09-20)"
   xmlns:inkscape="http://www.inkscape.org/namespaces/inkscape"
   xmlns:sodipodi="http://sodipodi.sourceforge.net/DTD/sodipodi-0.dtd"
   xmlns="http://www.w3.org/2000/svg"
   xmlns:svg="http://www.w3.org/2000/svg">
  <defs
     id="defs23" />
  <sodipodi:namedview
     id="namedview21"
     pagecolor="#ffffff"
     bordercolor="#666666"
     borderopacity="1.0"
     inkscape:pageshadow="2"
     inkscape:pageopacity="0.0"
     inkscape:pagecheckerboard="0"
     showgrid="false"
     inkscape:zoom="1.35"
     inkscape:cx="290"
     inkscape:cy="287.03704"
     inkscape:window-width="1920"
     inkscape:window-height="1001"
     inkscape:window-x="-9"
     inkscape:window-y="-9"
     inkscape:window-maximized="1"
     inkscape:current-layer="svg19" />
  <path
     d="m408.819 271.447c-12.723-9.675-15.556-13.715-10.992-15.466 38.138-14.635 17.703-90.979-26.33-98.418-14.452-2.442-16.467-4.235-18.789-16.616-5.746-30.626-35.303-44.726-62.118-42.818-1.223-.088-2.477-.235-3.707-.256-25.785-.436-52.926 13.833-58.412 43.074-2.323 12.381-4.263 16.362-18.917 16.616-45.142.783-64.34 67.142-26.202 98.418 3.779 3.099 1.602 5.791-11.12 15.466-64.746 49.239 4.97 147.491 71.194 100.336 9.695-6.904 11.233-6.979 13.42-1.278 4.618 12.034 2.565 69.817-3.195 88.96l-5.751 19.044h34.638c3.429 0 5.144.013 7.924 0 2.815.013 4.568 0 8.052 0h34.639l-5.624-19.044c-5.761-19.143-7.941-76.926-3.323-88.96 2.188-5.701 3.725-5.626 13.421 1.278 66.223 47.155 135.937-51.096 71.192-100.336z"
     fill="param(fill)"
     fill-opacity="param(fill-opacity)"
     stroke="param(outline)"
     stroke-opacity="param(outline-opacity)"
     stroke-width="param(outline-width)"
     id="path17" />
  <path
     style="fill:#00ff00;stroke-width:0.740741"
     d="m 248.78996,477.22222 c 0.20421,-0.71296 1.37215,-4.62963 2.59543,-8.7037 4.73725,-15.77715 6.11745,-24.09514 7.559,-45.55556 1.07902,-16.06338 0.50272,-43.71626 -1.04,-49.90257 -1.28586,-5.15638 -3.28445,-7.52503 -5.81372,-6.89022 -0.96131,0.24127 -4.46154,2.26567 -7.77829,4.49867 -12.95948,8.72493 -22.30026,12.21055 -34.38439,12.83094 -9.86924,0.50667 -16.93586,-0.91991 -26.22429,-5.29405 -30.51416,-14.36983 -45.20892,-52.43473 -31.52852,-81.67065 4.5435,-9.70977 11.67934,-17.95489 23.75984,-27.45332 6.05291,-4.75917 9.62054,-8.57338 9.62054,-10.28546 0,-0.59952 -2.25,-3.33424 -5,-6.07714 -14.74129,-14.70326 -20.32794,-34.91018 -15.34111,-55.4887 1.72998,-7.13887 6.96097,-17.52896 11.7036,-23.24635 4.98738,-6.01244 13.16888,-11.63724 20.15622,-13.85745 2.95961,-0.94041 8.68471,-1.91247 13.46798,-2.28673 12.76436,-0.99871 15.22687,-3.11345 18.00445,-15.4617 1.91015,-8.49195 3.66702,-12.94784 7.57453,-19.2111 6.07612,-9.73926 18.60063,-18.62581 31.68518,-22.48166 7.80732,-2.300716 30.9791,-2.922449 40.09292,-1.075753 12.74957,2.583393 23.2676,7.994293 31.10063,15.999433 7.1684,7.32591 11.01008,15.15899 14.21815,28.99037 2.05859,8.87547 4.10618,10.47808 16.78189,13.13481 16.37938,3.433 27.66904,11.87749 37.24096,27.85562 6.09762,10.17859 10.14974,24.3681 10.14385,35.52116 -0.008,15.75247 -6.40863,27.99564 -17.46233,33.4037 -2.27476,1.11295 -4.30789,2.47164 -4.51806,3.01934 -0.79494,2.07158 3.31654,6.45979 14.43102,15.40236 11.31823,9.1065 19.68961,21.61034 22.83048,34.10053 1.86982,7.43563 1.70131,20.35655 -0.36709,28.14815 -8.87276,33.42335 -40.46735,54.36365 -70.98467,47.04731 -7.87277,-1.88744 -13.72014,-4.57683 -23.22692,-10.6828 -8.36972,-5.37566 -10.51714,-6.24758 -12.11694,-4.91986 -3.74377,3.10705 -5.46454,22.71727 -4.18788,47.72555 1.38194,27.07031 2.76229,36.58741 7.72148,53.2372 l 3.25431,10.92593 h -42.16977 c -39.80928,0 -42.14897,-0.0726 -41.79848,-1.2963 z"
     id="path404" />
  <path
     style="fill:#008080;stroke-width:0.740741"
     d="m 262.03704,477.96416 c -7.02778,-0.12175 -12.77778,-0.34952 -12.77778,-0.50616 0,-0.15664 1.32984,-4.91973 2.95519,-10.58464 5.47687,-19.08877 7.41897,-35.99746 7.40911,-64.5063 -0.01,-27.92025 -1.61106,-36.38516 -6.89177,-36.42979 -0.73825,-0.006 -5.90887,2.75159 -11.49026,6.12851 -13.55926,8.20378 -19.62305,10.23589 -31.98227,10.71797 -11.34637,0.44257 -15.81684,-0.52506 -26.2963,-5.69181 -21.69913,-10.69844 -35.23071,-32.47504 -35.24577,-56.72157 -0.0127,-20.48373 7.9331,-34.37836 29.83195,-52.1663 5.83248,-4.73759 8.00642,-7.26556 8.00642,-9.31032 0,-0.63711 -2.58334,-4.10148 -5.74075,-7.69862 -7.05991,-8.04315 -10.05902,-12.97489 -12.99682,-21.37201 -1.94621,-5.56285 -2.31627,-7.82119 -2.59097,-15.81148 -0.26737,-7.77705 -0.0604,-10.35468 1.24914,-15.55556 3.16092,-12.55387 10.3684,-24.37411 18.66527,-30.61097 8.70414,-6.54302 12.24895,-7.8538 26.08599,-9.64591 14.01858,-1.81563 15.32148,-2.9311 18.66148,-15.97698 2.58175,-10.08415 6.77849,-18.6433 11.93533,-24.34179 7.69691,-8.50536 21.50209,-16.12205 32.36697,-17.85772 7.73781,-1.236126 29.50656,-1.045839 35.9375,0.31414 11.35988,2.40231 24.5064,9.57774 30.69805,16.75513 6.43877,7.46384 9.28522,13.5941 13.53646,29.15274 1.74533,6.38757 4.33241,8.65704 12.19235,10.69552 16.82644,4.36394 22.48343,7.1389 30.39852,14.91161 5.83296,5.72802 10.24614,12.08215 14.08688,20.28235 4.40034,9.39498 5.96654,15.83716 6.41444,26.38432 0.43959,10.35122 -0.52901,15.85921 -4.0065,22.78315 -2.16401,4.30874 -8.49585,10.57495 -13.81297,13.66983 -5.74329,3.34293 -4.97377,4.8368 8.27401,16.06232 12.39403,10.5021 18.40782,18.14608 22.95186,29.17354 3.91587,9.50304 4.83259,22.46503 2.36692,33.46734 -2.61627,11.67431 -10.46876,25.09912 -19.59489,33.49989 -11.75271,10.8186 -23.98272,15.78837 -38.85324,15.78837 -12.64567,0 -21.29543,-2.93972 -36.70845,-12.47577 -8.04573,-4.97792 -10.88384,-5.64261 -12.35935,-2.8946 -4.88982,9.10685 -4.55684,58.73927 0.56777,84.62963 0.94073,4.75272 4.23128,17.13459 6.64388,25 0.37455,1.22109 -1.27051,1.28664 -28.356,1.12979 -15.8145,-0.0916 -34.50363,-0.26611 -41.5314,-0.38785 z"
     id="path62" />
  <path
     style="fill:#d40000;stroke-width:0.740741"
     d="m 252.3347,477.2365 c -2.14077,-0.26255 -2.41784,-0.52505 -2.02505,-1.91849 7.77506,-27.58199 9.33376,-39.8462 9.28996,-73.09579 -0.0381,-28.94983 -1.34248,-36.29629 -6.44435,-36.29629 -1.12527,0 -6.20648,2.40826 -11.64959,5.52138 -16.28834,9.31593 -20.95599,10.74058 -35.26011,10.76205 -9.83152,0.0147 -13.5987,-0.87592 -22.53626,-5.32828 C 161.24655,365.69099 148.2961,344.88649 148.30179,320 c 0.002,-9.55664 1.19768,-15.37864 4.70065,-22.8919 4.19781,-9.00357 9.71462,-15.31529 26.48867,-30.30534 4.76632,-4.2594 6.06113,-5.845 6.04897,-7.4074 -0.0108,-1.39192 -1.79258,-4.09783 -5.9426,-9.02499 -6.45454,-7.66321 -11.78227,-17.32498 -13.66719,-24.78526 -1.70958,-6.76626 -1.50017,-21.63407 0.40135,-28.49593 3.3132,-11.95608 10.65353,-23.32828 19.09844,-29.58875 7.04988,-5.2263 10.76733,-6.60716 23.45881,-8.71385 6.11111,-1.0144 12.09932,-2.41816 13.30712,-3.11946 3.02883,-1.75867 4.63548,-4.81447 7.17489,-13.64649 2.65444,-9.23207 6.99029,-18.21611 11.10013,-22.99982 6.37975,-7.42582 18.7608,-14.93946 29.52897,-17.92013 6.7157,-1.858937 32.68696,-1.901324 40.33599,-0.0658 6.58771,1.5808 17.25848,6.67421 23.13843,11.04451 8.6903,6.45908 13.01763,13.48811 17.96544,29.18181 3.67645,11.66115 5.13187,13.3589 13.56242,15.82059 10.75862,3.14146 15.07999,4.64806 19.11285,6.66346 14.29423,7.14347 27.31343,25.98219 30.8258,44.60479 1.65195,8.75859 1.07438,23.18388 -1.15606,28.87376 -2.28478,5.82848 -6.51253,10.93271 -13.07551,15.78627 -7.98233,5.9032 -7.92477,6.08657 5.69337,18.13675 13.89938,12.29905 20.10165,20.59994 24.04914,32.18654 2.88672,8.47305 3.36632,21.84545 1.10474,30.80318 -5.75507,22.79496 -24.41282,42.25248 -45.12088,47.055 -6.41297,1.48726 -19.88029,1.43893 -25.6804,-0.0922 -5.6429,-1.4896 -11.8668,-4.24501 -18.90348,-8.36884 -3.05555,-1.7907 -7.12781,-4.05429 -9.04945,-5.0302 -9.94982,-5.05303 -11.32287,-0.72993 -11.31727,35.63303 0.005,33.63197 1.43054,44.27796 9.79363,73.14815 0.35451,1.22381 -1.77298,1.28967 -38.04422,1.17775 -21.13085,-0.0652 -39.53578,-0.25542 -40.89984,-0.42273 z"
     id="path138" />
</svg>
