<?xml version="1.0" encoding="iso-8859-1"?>
<!-- Generator: Adobe Illustrator 18.1.1, SVG Export Plug-In . SVG Version: 6.00 Build 0)  -->
<svg version="1.1" id="Capa_1" xmlns="http://www.w3.org/2000/svg" xmlns:xlink="http://www.w3.org/1999/xlink" x="0px" y="0px"
	 viewBox="0 0 52.242 52.242" style="enable-background:new 0 0 52.242 52.242;" xml:space="preserve">
<g>
	<path d="M0,14.016v24.212l2.992-0.003v-0.818c0-10.387,10.376-18.84,23.129-18.84c12.754,0,23.129,8.453,23.129,18.84v0.82h2.992
		V14.014L0,14.016L0,14.016z M5.098,26.595c-1.741,2.305-2.943,4.911-3.459,7.707V15.656h3.459V26.595z M11.65,20.801
		c-1.846,1.1-3.498,2.408-4.916,3.879v-9.023h4.916V20.801z M40.047,19.121c-3.973-1.354-8.77-2.147-13.926-2.147
		c-4.695-0.002-9.087,0.654-12.833,1.793v-2.565h26.759C40.047,16.201,40.047,19.121,40.047,19.121z M46.6,25.9
		c-1.455-1.765-3.236-3.327-5.27-4.642h0.354v-5.603H46.6V25.9z M50.606,34.299c-0.4-2.164-1.213-4.217-2.367-6.104v-12.54h2.367
		V34.299z"/>
</g>
<g>
</g>
<g>
</g>
<g>
</g>
<g>
</g>
<g>
</g>
<g>
</g>
<g>
</g>
<g>
</g>
<g>
</g>
<g>
</g>
<g>
</g>
<g>
</g>
<g>
</g>
<g>
</g>
<g>
</g>
</svg>
