<?xml version="1.0" encoding="UTF-8" standalone="no"?>
<svg
   enable-background="new 0 0 579.997 579.997"
   height="579.997"
   viewBox="0 0 579.997 579.997"
   width="579.997"
   version="1.1"
   id="svg4"
   sodipodi:docname="fire.svg"
   inkscape:version="1.1.1 (3bf5ae0d25, 2021-09-20)"
   xmlns:inkscape="http://www.inkscape.org/namespaces/inkscape"
   xmlns:sodipodi="http://sodipodi.sourceforge.net/DTD/sodipodi-0.dtd"
   xmlns="http://www.w3.org/2000/svg"
   xmlns:svg="http://www.w3.org/2000/svg">
  <defs
     id="defs8" />
  <sodipodi:namedview
     id="namedview6"
     pagecolor="#ffffff"
     bordercolor="#666666"
     borderopacity="1.0"
     inkscape:pageshadow="2"
     inkscape:pageopacity="0.0"
     inkscape:pagecheckerboard="0"
     showgrid="false"
     inkscape:zoom="1.4000072"
     inkscape:cx="289.64136"
     inkscape:cy="288.92708"
     inkscape:window-width="1920"
     inkscape:window-height="1001"
     inkscape:window-x="-9"
     inkscape:window-y="-9"
     inkscape:window-maximized="1"
     inkscape:current-layer="svg4" />
  <path
     d="m490.788 234l-10.842-36.129-46.382 64.456c-10.587-18.262-28.587-50.786-33.366-68.625-6.551-24.481-5.854-85.383-5.032-106.783l1.492-38.863-31.168 23.26c-5.253 3.92-51.715 39.014-65.315 63.821-9.035 16.505-14.43 46.67-17.384 69.37-17.949-11.118-30.772-20.987-35.236-27.126-11.849-16.31-23.753-66.485-28.473-94.281l-8.112-47.861-25.914 41.048c-6.213 9.842-37.191 60.466-36.888 90.644.23 22.981 13.784 43.488 26.893 63.323 10.147 15.353 20.641 31.228 20.738 43.267.087 9.988-7.496 30.109-20.823 55.282l-83.787-149.865.254 71.82c.002.62.143 62.365-4.26 87.48-1.805 10.333-13.09 34.96-19.779 48.056l-4.221 8.258 4.063 8.336c4.654 9.553 46.545 94.036 83.597 118.519 36.97 24.407 96.182 28.052 128.188 28.052 1.199 0 2.392-.006 3.572-.016 50.452-.458 122.292-4.911 163.506-38.16 37.123-29.972 60.32-93.155 66.842-142.478 5.449-41.073-19.32-125.332-22.163-134.805zm-215.559 36.561c5.892 5.554 38.389 36.819 49.084 60.592 3.679 8.196 5.421 19.439 7.266 31.343 3.318 21.422 6.751 43.572 22.132 49.808 2.718 1.104 5.753 1.662 9.023 1.662 26.332 0 63.063-36.325 69.313-42.71-.4 9.015-3.158 61.97-13.241 82.808-9.119 18.731-29.282 40.543-46.901 50.734-21.443 12.318-56.453 18.047-81.637 18.26l-.816.004c-20.764 0-47.292-6.724-64.37-13.388-23.225-9.111-51.617-21.814-65.144-39.314-15.592-20.174-24.978-78.549-26.473-88.417 7.817 7.277 57.339 52.121 90.247 52.121 2.658 0 5.184-.293 7.503-.87 27.343-6.785 33.747-36.016 39.939-64.285.723-3.299 1.47-6.71 2.233-9.987 5.548-23.899 2.404-79.297 1.842-88.361z"
     fill="param(fill)"
     fill-opacity="param(fill-opacity)"
     stroke="param(outline)"
     stroke-opacity="param(outline-opacity)"
     stroke-width="param(outline-width)"
     id="path2" />
  <path
     style="fill:#ffff00;stroke-width:0.714282"
     d="m 256.78439,548.57587 c -29.57429,-1.78243 -54.7798,-6.23462 -75.7139,-13.37377 -16.43678,-5.60543 -27.99779,-11.91409 -38.85262,-21.20124 -19.85836,-16.99039 -48.244122,-58.96795 -72.09874,-106.6214 l -6.380182,-12.74544 3.599365,-7.13942 c 8.479735,-16.81973 17.250598,-37.56567 19.406573,-45.90283 3.397637,-13.13868 4.741514,-44.16113 4.725849,-109.09297 l -0.01258,-52.14259 4.449234,7.944 c 2.447079,4.36919 21.163431,37.86967 41.591901,74.44549 20.42847,36.57583 37.33108,66.50978 37.56136,66.51991 0.64261,0.0283 10.89593,-21.55035 14.19987,-29.88433 7.33332,-18.49776 8.30083,-26.61962 4.422,-37.12081 -2.85261,-7.7229 -5.47022,-12.386 -16.90706,-30.11881 -12.41333,-19.24686 -14.71988,-23.06402 -18.57563,-30.74128 -10.96182,-21.8263 -12.19688,-36.83729 -4.89133,-59.44985 4.51504,-13.97518 13.64423,-33.7756 23.45857,-50.879571 7.51277,-13.092896 33.49874,-53.948326 33.96405,-53.39866 0.25226,0.297984 2.14213,10.666737 4.19971,23.041674 7.61812,45.817787 14.01562,73.296317 22.36705,96.070937 5.89299,16.07037 10.06963,22.56541 19.27049,29.96726 7.27905,5.85582 25.60367,18.31215 26.30317,17.87983 0.28066,-0.17345 0.73548,-2.33149 1.01072,-4.79562 1.5979,-14.30572 6.41822,-37.04538 10.47736,-49.42656 5.10268,-15.56417 10.80734,-24.09952 27.06729,-40.4982 5.6964,-5.745 15.1785,-14.540476 21.07132,-19.545501 10.27709,-8.728761 53.07696,-41.473538 53.5482,-40.96797 0.12532,0.134448 -0.20692,11.172967 -0.73831,24.530041 -2.05523,51.66073 -0.69376,94.65841 3.66901,115.8734 1.60504,7.80491 5.19945,17.1237 12.1986,31.62584 5.9599,12.34884 21.70158,41.44657 22.39346,41.39324 0.19643,-0.0151 10.62902,-14.35531 23.18353,-31.86705 18.42164,-25.69556 22.93725,-31.58186 23.4009,-30.50424 1.54512,3.59111 14.45829,48.21967 17.9538,62.04927 10.97254,43.41144 16.42531,78.96942 15.11573,98.57092 -1.08487,16.23811 -6.21489,39.93923 -13.22136,61.0838 -12.04324,36.34478 -29.25053,65.90986 -48.98014,84.15626 -25.81233,23.87184 -67.97105,37.23065 -131.0233,41.51729 -14.97285,1.01794 -51.55881,1.4514 -63.21396,0.74895 z m 46.07119,-25.74412 c 24.04376,-1.82897 46.42735,-6.94557 62.81423,-14.35849 18.87466,-8.53834 43.30825,-33.28064 53.35849,-54.03267 3.37371,-6.96615 6.85636,-21.21694 9.11544,-37.29988 1.97,-14.02487 3.98607,-35.43646 3.99282,-42.40567 l 0.004,-4.19158 -6.72234,6.4266 c -24.45641,23.38048 -49.23106,37.48955 -63.97673,36.4345 -8.01051,-0.57315 -13.95856,-4.12858 -18.20456,-10.88175 -5.09908,-8.10997 -7.13851,-15.29747 -11.1542,-39.3104 -4.61112,-27.57345 -6.08589,-31.98535 -15.27559,-45.69865 -8.53513,-12.7362 -20.53592,-26.82324 -34.69773,-40.72947 l -7.2741,-7.14282 0.42719,8.21424 c 1.65094,31.74564 1.10754,61.93845 -1.37077,76.16434 -1.70672,9.79681 -8.01944,35.9577 -10.26876,42.55533 -7.16931,21.02879 -16.41903,31.47048 -31.85238,35.95708 -9.5811,2.78531 -23.01424,-0.0615 -39.42152,-8.35444 -14.73993,-7.45017 -37.89378,-23.89854 -53.23238,-37.816 -3.09113,-2.80473 -5.73228,-4.98223 -5.86921,-4.83889 -0.68533,0.71741 4.43358,26.97367 8.26694,42.40326 5.50796,22.17004 11.72187,38.11301 18.22853,46.76878 6.55187,8.71592 18.75571,17.6903 35.80332,26.32883 28.27695,14.32877 57.03977,23.3056 82.64294,25.79271 8.50777,0.82645 13.95549,0.82978 24.66608,0.015 z"
     id="path65" />
</svg>
